<svg xmlns="http://www.w3.org/2000/svg" version="1.1" xmlns:xlink="http://www.w3.org/1999/xlink" xmlns:svgjs="http://svgjs.dev/svgjs" width="1500" height="575" viewBox="0 0 1500 575"><g transform="matrix(1,0,0,1,-0.9090909090909918,-0.9942631777579436)"><svg viewBox="0 0 396 152" data-background-color="#ffffff" preserveAspectRatio="xMidYMid meet" height="575" width="1500" xmlns="http://www.w3.org/2000/svg" xmlns:xlink="http://www.w3.org/1999/xlink"><g id="tight-bounds" transform="matrix(1,0,0,1,0.2400000000000091,0.26283130959862433)"><svg viewBox="0 0 395.52 151.47433738080275" height="151.47433738080275" width="395.52"><g><svg viewBox="0 0 395.52 151.47433738080275" height="151.47433738080275" width="395.52"><g transform="matrix(1,0,0,1,0,93.61721735036713)"><svg viewBox="0 0 395.52 57.85712003043561" height="57.85712003043561" width="395.52"><g id="textblocktransform"><svg viewBox="0 0 395.52 57.85712003043561" height="57.85712003043561" width="395.52" id="textblock"><g><svg viewBox="0 0 395.52 57.85712003043561" height="57.85712003043561" width="395.52"><g transform="matrix(1,0,0,1,0,0)"><svg width="395.52" viewBox="0.7 -37.7 262.82 38.45" height="57.85712003043561" data-palette-color="#ffffff"><path d="M28.5-34.55L34.4-34.55 29.55 0 21.2 0 17.5-27.8 13.65 0 5.45 0 0.7-34.55 6.85-34.55 10.05-5.1 14.2-34.55 20.95-34.55 25-5.1 28.5-34.55ZM56.8-13.85Q56.8-13.4 56.65-11.3L56.65-11.3 43-11.3Q43.2-7.2 44.42-5.58 45.65-3.95 47.9-3.95L47.9-3.95Q49.45-3.95 50.7-4.48 51.95-5 53.4-6.15L53.4-6.15 55.95-2.65Q52.45 0.75 47.55 0.75L47.55 0.75Q42.35 0.75 39.57-2.85 36.8-6.45 36.8-13L36.8-13Q36.8-19.55 39.45-23.35 42.1-27.15 46.95-27.15L46.95-27.15Q51.6-27.15 54.2-23.78 56.8-20.4 56.8-13.85L56.8-13.85ZM50.8-15.3L50.8-15.65Q50.8-19.4 49.9-21.13 49-22.85 47-22.85L47-22.85Q45.15-22.85 44.17-21.18 43.2-19.5 43-15.3L43-15.3 50.8-15.3ZM78-6.4Q78-5.1 78.34-4.48 78.7-3.85 79.5-3.45L79.5-3.45 78.25 0.65Q76.2 0.4 74.97-0.45 73.75-1.3 73.15-3.05L73.15-3.05Q70.84 0.75 66.7 0.75L66.7 0.75Q63.4 0.75 61.45-1.48 59.5-3.7 59.5-7.4L59.5-7.4Q59.5-11.7 62.17-13.95 64.84-16.2 69.95-16.2L69.95-16.2 72-16.2 72-18.05Q72-20.55 71.12-21.58 70.25-22.6 68.3-22.6L68.3-22.6Q65.95-22.6 62.45-21.3L62.45-21.3 61.05-25.3Q63.05-26.2 65.2-26.68 67.34-27.15 69.3-27.15L69.3-27.15Q78-27.15 78-18.35L78-18.35 78-6.4ZM68.34-3.7Q70.75-3.7 72-7L72-7 72-12.55 70.55-12.55Q68-12.55 66.82-11.4 65.65-10.25 65.65-7.85L65.65-7.85Q65.65-5.8 66.34-4.75 67.05-3.7 68.34-3.7L68.34-3.7ZM94.94-5L97.09-1.2Q94.64 0.75 91.34 0.75L91.34 0.75Q87.89 0.75 86.09-1.23 84.29-3.2 84.29-6.6L84.29-6.6 84.29-22 81.19-22 81.19-26.45 84.29-26.45 84.29-32.3 90.44-33.05 90.44-26.45 95.44-26.45 94.84-22 90.44-22 90.44-6.6Q90.44-4.2 92.49-4.2L92.49-4.2Q93.14-4.2 93.64-4.38 94.14-4.55 94.94-5L94.94-5ZM111.99-27.15Q114.84-27.15 116.49-25.1 118.14-23.05 118.14-19.6L118.14-19.6 118.14 0 111.99 0 111.99-18.9Q111.99-20.8 111.47-21.63 110.94-22.45 109.94-22.45L109.94-22.45Q107.84-22.45 105.79-18.5L105.79-18.5 105.79 0 99.64 0 99.64-37 105.79-37.65 105.79-23.3Q107.04-25.25 108.52-26.2 109.99-27.15 111.99-27.15L111.99-27.15ZM142.54-13.85Q142.54-13.4 142.39-11.3L142.39-11.3 128.74-11.3Q128.94-7.2 130.16-5.58 131.39-3.95 133.64-3.95L133.64-3.95Q135.19-3.95 136.44-4.48 137.69-5 139.14-6.15L139.14-6.15 141.69-2.65Q138.19 0.75 133.29 0.75L133.29 0.75Q128.09 0.75 125.31-2.85 122.54-6.45 122.54-13L122.54-13Q122.54-19.55 125.19-23.35 127.84-27.15 132.69-27.15L132.69-27.15Q137.34-27.15 139.94-23.78 142.54-20.4 142.54-13.85L142.54-13.85ZM136.54-15.3L136.54-15.65Q136.54-19.4 135.64-21.13 134.74-22.85 132.74-22.85L132.74-22.85Q130.89-22.85 129.91-21.18 128.94-19.5 128.74-15.3L128.74-15.3 136.54-15.3ZM158.49-27.1Q159.64-27.1 160.54-26.75L160.54-26.75 159.54-20.85Q158.54-21.1 157.69-21.1L157.69-21.1Q155.79-21.1 154.69-19.45 153.59-17.8 152.99-14.55L152.99-14.55 152.99 0 146.84 0 146.84-26.45 152.19-26.45 152.64-21.85Q154.49-27.1 158.49-27.1L158.49-27.1ZM195.33 0L188.88 0 187.18-8.1 178.28-8.1 176.63 0 170.28 0 178.98-34.55 186.68-34.55 195.33 0ZM182.73-29.7L179.28-12.9 186.23-12.9 182.73-29.7ZM203.68 0.75Q200.98 0.75 199.4-0.93 197.83-2.6 197.83-5.4L197.83-5.4 197.83-37.05 203.98-37.7 203.98-5.65Q203.98-5 204.28-4.6 204.58-4.2 205.18-4.2L205.18-4.2Q205.53-4.2 205.85-4.3 206.18-4.4 206.28-4.4L206.28-4.4 207.48-0.2Q205.78 0.75 203.68 0.75L203.68 0.75ZM229.38-13.85Q229.38-13.4 229.23-11.3L229.23-11.3 215.58-11.3Q215.78-7.2 217-5.58 218.23-3.95 220.48-3.95L220.48-3.95Q222.03-3.95 223.28-4.48 224.53-5 225.98-6.15L225.98-6.15 228.53-2.65Q225.03 0.75 220.13 0.75L220.13 0.75Q214.93 0.75 212.15-2.85 209.38-6.45 209.38-13L209.38-13Q209.38-19.55 212.03-23.35 214.68-27.15 219.53-27.15L219.53-27.15Q224.18-27.15 226.78-23.78 229.38-20.4 229.38-13.85L229.38-13.85ZM223.38-15.3L223.38-15.65Q223.38-19.4 222.48-21.13 221.58-22.85 219.58-22.85L219.58-22.85Q217.73-22.85 216.75-21.18 215.78-19.5 215.58-15.3L215.58-15.3 223.38-15.3ZM245.32-27.1Q246.47-27.1 247.37-26.75L247.37-26.75 246.37-20.85Q245.37-21.1 244.52-21.1L244.52-21.1Q242.62-21.1 241.52-19.45 240.42-17.8 239.82-14.55L239.82-14.55 239.82 0 233.67 0 233.67-26.45 239.02-26.45 239.47-21.85Q241.32-27.1 245.32-27.1L245.32-27.1ZM261.37-5L263.52-1.2Q261.07 0.75 257.77 0.75L257.77 0.75Q254.32 0.75 252.52-1.23 250.72-3.2 250.72-6.6L250.72-6.6 250.72-22 247.62-22 247.62-26.45 250.72-26.45 250.72-32.3 256.87-33.05 256.87-26.45 261.87-26.45 261.27-22 256.87-22 256.87-6.6Q256.87-4.2 258.92-4.2L258.92-4.2Q259.57-4.2 260.07-4.38 260.57-4.55 261.37-5L261.37-5Z" opacity="1" transform="matrix(1,0,0,1,0,0)" fill="#ffffff" class="wordmark-text-0" data-fill-palette-color="primary" id="text-0"></path></svg></g></svg></g></svg></g></svg></g><g transform="matrix(1,0,0,1,162.06572474854264,0)"><svg viewBox="0 0 71.3885505029147 79.95853988206201" height="79.95853988206201" width="71.3885505029147"><g><svg xmlns="http://www.w3.org/2000/svg" xmlns:xlink="http://www.w3.org/1999/xlink" version="1.1" x="0" y="0" viewBox="13.335 4.943332446118305 73.33100003483929 82.13417487217075" enable-background="new 0 0 100 100" xml:space="preserve" height="79.95853988206201" width="71.3885505029147" class="icon-icon-0" data-fill-palette-color="accent" id="icon-0"><g fill="#24a8df" data-fill-palette-color="accent"><path d="M49.44 65.463A3.666 3.666 0 0 0 44.52 67.104L37.188 81.77A3.666 3.666 0 1 0 43.747 85.05L51.081 70.385A3.67 3.67 0 0 0 49.44 65.463" fill="#24a8df" data-fill-palette-color="accent"></path><path d="M64.048 65.438A3.663 3.663 0 0 0 59.159 67.161L56.226 73.28A3.665 3.665 0 0 0 59.529 78.532 3.67 3.67 0 0 0 62.839 76.448L65.772 70.329A3.667 3.667 0 0 0 64.048 65.438" fill="#24a8df" data-fill-palette-color="accent"></path><path d="M34.716 65.438A3.663 3.663 0 0 0 29.827 67.161L26.895 73.28A3.664 3.664 0 0 0 30.198 78.532C31.567 78.532 32.878 77.762 33.507 76.448L36.441 70.329A3.67 3.67 0 0 0 34.716 65.438" fill="#24a8df" data-fill-palette-color="accent"></path><path d="M82.999 40.144H59.534C55.085 40.144 51.468 36.526 51.468 32.079S55.085 24.012 59.534 24.012A8.06 8.06 0 0 1 67.343 30.056 3.67 3.67 0 0 0 71.811 32.692 3.665 3.665 0 0 0 74.446 28.228 15.39 15.39 0 0 0 59.536 16.679C51.044 16.679 44.134 23.588 44.134 32.079S51.044 47.477 59.536 47.477H83A3.666 3.666 0 1 0 82.999 40.144" fill="#24a8df" data-fill-palette-color="accent"></path><path d="M75.665 53.343H27.204C23.6 53.343 20.667 50.411 20.667 46.808S23.601 40.272 27.204 40.272A6.54 6.54 0 0 1 33.739 46.808 3.668 3.668 0 0 0 41.073 46.808C41.073 39.162 34.85 32.939 27.204 32.939 19.556 32.939 13.335 39.161 13.335 46.808S19.556 60.677 27.204 60.677H75.665A3.667 3.667 0 0 0 75.665 53.343" fill="#24a8df" data-fill-palette-color="accent"></path><path d="M36.474 30.107C37.468 30.107 38.458 29.705 39.181 28.913A3.665 3.665 0 0 0 38.947 23.733 6.61 6.61 0 0 1 38.529 14.41 6.56 6.56 0 0 1 43.037 12.272 3.667 3.667 0 0 0 42.633 4.949 13.87 13.87 0 0 0 33.115 9.463C27.931 15.134 28.332 23.964 34.002 29.147 34.706 29.789 35.591 30.107 36.474 30.107" fill="#24a8df" data-fill-palette-color="accent"></path></g></svg></g></svg></g><g></g></svg></g><defs></defs></svg><rect width="395.52" height="151.47433738080275" fill="none" stroke="none" visibility="hidden"></rect></g></svg></g></svg>